<?xml version="1.0" encoding="UTF-8" standalone="no"?>
<!-- Created with Inkscape (http://www.inkscape.org/) -->

<svg
   xmlns:dc="http://purl.org/dc/elements/1.1/"
   xmlns:cc="http://creativecommons.org/ns#"
   xmlns:rdf="http://www.w3.org/1999/02/22-rdf-syntax-ns#"
   xmlns:svg="http://www.w3.org/2000/svg"
   xmlns="http://www.w3.org/2000/svg"
   version="1.1"
   width="16"
   height="16"
   viewBox="0 0 16 16"
   id="svg2">
  <desc
     id="desc6" />
  <metadata
     id="metadata16">
    <rdf:RDF>
      <cc:Work
         rdf:about="">
        <dc:format>image/svg+xml</dc:format>
        <dc:type
           rdf:resource="http://purl.org/dc/dcmitype/StillImage" />
        <dc:title></dc:title>
      </cc:Work>
    </rdf:RDF>
  </metadata>
  <defs
     id="defs8" />
  <g
     id="Page-1"
     style="fill:none;stroke:none">
    <g
       transform="translate(-340,-4)"
       id="Core"
       style="fill:#000000">
      <g
         transform="translate(340,4)"
         id="apps">
        <path
           d="M 0,4 4,4 4,0 0,0 0,4 0,4 z m 6,12 4,0 0,-4 -4,0 0,4 0,0 z m -6,0 4,0 0,-4 -4,0 0,4 0,0 z m 0,-6 4,0 0,-4 -4,0 0,4 0,0 z m 6,0 4,0 0,-4 -4,0 0,4 0,0 z m 6,-10 0,4 4,0 0,-4 -4,0 0,0 z M 6,4 10,4 10,0 6,0 6,4 6,4 z m 6,6 4,0 0,-4 -4,0 0,4 0,0 z m 0,6 4,0 0,-4 -4,0 0,4 0,0 z"
           id="Shape"
           style="fill:#34495e;fill-opacity:1" />
      </g>
    </g>
  </g>
</svg>
