<?xml version="1.0" encoding="UTF-8" standalone="no"?>
<!-- Created with Inkscape (http://www.inkscape.org/) -->

<svg
   xmlns:dc="http://purl.org/dc/elements/1.1/"
   xmlns:cc="http://creativecommons.org/ns#"
   xmlns:rdf="http://www.w3.org/1999/02/22-rdf-syntax-ns#"
   xmlns:svg="http://www.w3.org/2000/svg"
   xmlns="http://www.w3.org/2000/svg"
   version="1.1"
   width="24"
   height="24"
   id="svg2">
  <metadata
     id="metadata14">
    <rdf:RDF>
      <cc:Work
         rdf:about="">
        <dc:format>image/svg+xml</dc:format>
        <dc:type
           rdf:resource="http://purl.org/dc/dcmitype/StillImage" />
        <dc:title></dc:title>
      </cc:Work>
    </rdf:RDF>
  </metadata>
  <defs
     id="defs12" />
  <g
     transform="translate(0,-1028.4)"
     id="g4">
    <path
       d="m 4.2218,1031.2 2.1213,0.7 0.1548,0.1 c 0.3432,-0.2 0.6978,-0.4 1.0606,-0.6 l -0.0663,-0.2 0.4199,-2.2 1.9445,-0.5 1.4804,1.7 0.044,0.2 c 0.416,-0.1 0.822,-0.1 1.238,0 l 0.044,-0.2 1.48,-1.7 1.945,0.5 0.42,2.2 -0.066,0.2 c 0.362,0.2 0.717,0.4 1.06,0.6 l 0.155,-0.1 2.121,-0.7 1.414,1.4 -0.707,2.1 -0.154,0.2 c 0.226,0.3 0.438,0.7 0.618,1 h 0.199 l 2.188,0.4 0.53,1.9 -1.701,1.5 h -0.177 c 0.026,0.5 0.026,0.9 0,1.3 h 0.177 l 1.701,1.5 -0.53,2 -2.188,0.4 -0.199,-0.1 c -0.18,0.4 -0.392,0.7 -0.618,1.1 l 0.154,0.1 0.707,2.1 -1.414,1.5 -2.121,-0.8 -0.155,-0.1 c -0.343,0.2 -0.698,0.4 -1.06,0.6 l 0.066,0.2 -0.42,2.2 -1.945,0.5 -1.48,-1.7 -0.044,-0.1 h -1.238 l -0.044,0.1 -1.4804,1.7 -1.9446,-0.5 -0.4198,-2.2 0.0663,-0.2 c -0.3628,-0.2 -0.7174,-0.4 -1.0607,-0.6 l -0.1547,0.1 -2.1213,0.8 -1.4142,-1.5 0.7071,-2.1 0.1547,-0.1 c -0.2267,-0.4 -0.4389,-0.7 -0.6187,-1.1 l -0.1989,0.1 -2.1876,-0.4 -0.53034,-2 1.7015,-1.5 h 0.1767 c -0.0258,-0.4 -0.0258,-0.8 0,-1.3 h -0.1767 l -1.7015,-1.5 0.53033,-1.9 2.1876,-0.4 h 0.1989 c 0.1798,-0.3 0.3921,-0.7 0.6187,-1 l -0.1547,-0.2 -0.7071,-2.1 1.4142,-1.4 z m 2.8285,4.2 c -2.7337,2.7 -2.7337,7.2 0,9.9 2.7336,2.7 7.1657,2.7 9.8997,0 2.733,-2.7 2.733,-7.2 0,-9.9 -2.734,-2.7 -7.1661,-2.7 -9.8997,0 z"
       id="path6"
       style="fill:#4b6178;fill-opacity:1" />
    <path
       d="m 6.3431,1034.7 c 3.1242,-3.1 8.1899,-3.1 11.314,0 3.124,3.1 3.124,8.2 0,11.3 -3.124,3.1 -8.1896,3.1 -11.314,0 -3.1241,-3.1 -3.124,-8.2 1e-4,-11.3 z m 1.4806,0.1 2.1655,2.1 c 0.8848,-0.5 1.8958,-0.7 2.8728,-0.4 l 1.392,-2.8 c -2.142,-0.7 -4.5518,-0.3 -6.4303,1.1 z m -1.4142,1.4 c -1.4064,1.9 -1.766,4.3 -1.0386,6.4 l 2.718,-1.4 c -0.2171,-1 -0.0357,-2 0.4861,-2.8 l -2.1655,-2.2 z m 4.1765,2.7 c -0.7813,0.8 -0.7813,2.1 0,2.9 0.781,0.8 2.047,0.8 2.828,0 0.781,-0.8 0.781,-2.1 0,-2.9 -0.781,-0.7 -2.047,-0.7 -2.828,0 z m 5.436,-4.2 -1.392,2.7 c 0.062,0 0.138,0.1 0.198,0.1 0.69,0.7 1.068,1.6 1.149,2.5 l 3.006,0.5 c 0.022,-1.9 -0.644,-3.7 -2.033,-5.1 -0.288,-0.3 -0.607,-0.5 -0.928,-0.7 z m -9.723,9.7 c 0.2271,0.3 0.4635,0.6 0.7513,0.9 1.3888,1.4 3.2177,2.1 5.0377,2 l -0.442,-3 c -0.9,0 -1.7854,-0.4 -2.4744,-1.1 -0.0602,-0.1 -0.0992,-0.1 -0.1547,-0.2 l -2.7179,1.4 z m 9.369,-2.4 c -0.194,0.4 -0.474,0.8 -0.84,1.2 -0.365,0.4 -0.79,0.6 -1.237,0.8 l 0.464,3.1 c 1.058,-0.4 2.058,-1 2.895,-1.8 0.837,-0.8 1.421,-1.8 1.745,-2.9 l -3.027,-0.4 z"
       id="path8"
       style="fill:#34495e;fill-opacity:1" />
  </g>
</svg>
