<?xml version="1.0" ?><!DOCTYPE svg  PUBLIC '-//W3C//DTD SVG 1.1//EN'  'http://www.w3.org/Graphics/SVG/1.1/DTD/svg11.dtd'><svg enable-background="new 0 0 512 512" height="512px" id="Layer_1" version="1.1" viewBox="0 0 512 512" width="512px" xml:space="preserve" xmlns="http://www.w3.org/2000/svg" xmlns:xlink="http://www.w3.org/1999/xlink"><g><polygon fill="#B3B6B9" points="391.935,376 444,436.612 444,376   "/><polygon fill="#70757B" points="111.805,323 60,384.088 60,323   "/><path d="M508,317.998C508,354.45,478.45,384,441.998,384H238.002C201.55,384,172,354.45,172,317.998v-99.996    C172,181.55,201.55,152,238.002,152h203.996C478.45,152,508,181.55,508,218.002V317.998z" fill="#8B8F94"/><circle cx="212.686" cy="267.896" fill="#F1F0EF" r="30.687"/><circle cx="297.249" cy="267.896" fill="#F1F0EF" r="30.687"/><circle cx="430.058" cy="267.896" fill="#2F373E" r="30.688"/><circle cx="340.233" cy="267.896" fill="#2F373E" r="30.688"/><path d="M339,265.999C339,302.45,309.449,332,272.997,332H69.003C32.55,332,3,302.45,3,265.999v-99.998    C3,129.55,32.55,100,69.003,100h203.994C309.449,100,339,129.55,339,166.001V265.999z" fill="#212A31"/><circle cx="85.639" cy="216.106" fill="#D8D8D8" r="30.688"/><circle cx="171.82" cy="216.106" fill="#D8D8D8" r="30.688"/><circle cx="257.193" cy="218.534" fill="#D8D8D8" r="30.688"/></g></svg>